<?xml version="1.0" encoding="iso-8859-1"?>
<!-- Generator: Adobe Illustrator 19.0.0, SVG Export Plug-In . SVG Version: 6.00 Build 0)  -->
<svg fill="#fff" version="1.1" id="Capa_1" xmlns="http://www.w3.org/2000/svg" xmlns:xlink="http://www.w3.org/1999/xlink" x="0px" y="0px"
	 viewBox="0 0 490 490" style="enable-background:new 0 0 490 490;" xml:space="preserve">
<g>
	<ellipse  fill="#fff" cx="141.728" cy="381.365" rx="72.943" ry="14.805"/>
	<g>
		<path fill="#fff" d="M39.521,173.428c0,54.551,80.57,164.053,89.775,176.309l12.51,16.822l12.589-16.822
			c5.178-6.998,33.343-45.272,56.752-87.025l197.416,200.574l21.824-21.48L275.422,284.364L490,65.904l-21.839-21.45
			L253.945,262.545l-27.96-28.407c10.633-22.471,18.108-44.139,18.108-60.709c0-65.445-40.128-107.74-102.286-107.74
			c-24.857,0-46.108,6.861-62.761,19.163L21.824,26.714L0,48.187l57.915,58.841C46.108,124.615,39.521,147.104,39.521,173.428z
			 M213.479,173.428c0,24.291-28.95,80.992-71.688,141.501c-36.616-51.62-71.657-114.225-71.657-141.501
			c0-48.294,26.793-77.127,71.672-77.127C186.686,96.301,213.479,125.134,213.479,173.428z"/>
		<ellipse fill="#fff" cx="141.728" cy="174.149" rx="33.125" ry="33.724"/>
	</g>
</g>
<g>
</g>
<g>
</g>
<g>
</g>
<g>
</g>
<g>
</g>
<g>
</g>
<g>
</g>
<g>
</g>
<g>
</g>
<g>
</g>
<g>
</g>
<g>
</g>
<g>
</g>
<g>
</g>
<g>
</g>
</svg>
